<svg xmlns="http://www.w3.org/2000/svg" xmlns:xlink="http://www.w3.org/1999/xlink" version="1.1" x="0px" y="0px" viewBox="0 0 500 500" enable-background="new 0 0 500 500" xml:space="preserve"><path fill-rule="evenodd" clip-rule="evenodd" d="M245.346,404.971c0-1.12,0-1.682,0-2.244c0-96.922-0.004-193.845,0.036-290.767  c0-1.565-0.526-2.373-1.858-3.118c-46.831-26.204-96.552-43.535-150.143-49.024c-1.853-0.19-3.71-0.328-5.585-0.491  c0,98.983,0,197.616,0,296.379c27.828,2.284,54.842,7.814,81.28,16.223C195.478,380.326,220.731,391.395,245.346,404.971z"></path><path fill-rule="evenodd" clip-rule="evenodd" d="M254.646,404.945c24.596-13.565,49.854-24.631,76.258-33.03  c26.486-8.425,53.561-13.94,81.204-16.219c0-98.955,0-197.604,0-296.243c-0.764,0-1.329-0.044-1.886,0.006  c-28.228,2.558-55.716,8.574-82.584,17.551c-1.947,0.651-2.548,1.509-2.544,3.545c0.067,32.947,0.048,65.894,0.048,98.841  c0,0.842,0,1.684,0,2.526c-0.189,0.019-0.38,0.038-0.569,0.058c-6.512-7.748-13.024-15.496-19.639-23.365  c-7.092,8.003-13.982,15.78-20.873,23.556c-0.169-0.067-0.337-0.134-0.506-0.202c0-28.918,0-57.837,0-87.021  c-0.968,0.416-1.621,0.649-2.23,0.966c-8.195,4.262-16.363,8.576-24.593,12.771c-1.607,0.819-2.129,1.79-2.128,3.59  c0.048,96.655,0.042,193.31,0.042,289.965C254.646,402.995,254.646,403.749,254.646,404.945z"></path><path fill-rule="evenodd" clip-rule="evenodd" d="M463.807,127.646c0-0.743-0.069-1.486-0.114-2.378  c-5.516-0.554-10.807-1.085-16.348-1.642c0,90.839,0,181.321,0,272.056c-3.892-0.215-7.407-0.464-10.926-0.594  c-42.666-1.58-84.442,3.966-125.447,15.686c-20.039,5.728-39.502,13.026-58.544,21.461c-1.775,0.786-3.219,0.736-4.976-0.024  c-6.729-2.914-13.475-5.804-20.307-8.461c-55.798-21.701-113.468-31.919-173.406-28.116c-0.322,0.021-0.651-0.088-1.182-0.166  c0-90.582,0-181.071,0-271.857c-5.597,0.578-10.941,1.13-16.396,1.693c0,1.192,0,2.031,0,2.871c0,97.571,0,195.143,0,292.714  c0,0.565-0.02,1.131,0.014,1.693c0.021,0.343,0.025,0.899,0.211,0.987c2.547,1.191,4.068,4.053,7.692,3.562  c32.443-4.384,65.013-6.104,97.738-4.275c31.329,1.751,62.101,6.711,92.112,15.979c4.312,1.331,8.512,2.059,13.044,1.651  c3.557-0.319,7.181,0.157,10.776,0.188c1.173,0.011,2.407-0.08,3.516-0.435c33.885-10.854,68.683-16.326,104.173-17.748  c29.26-1.173,58.389,0.487,87.408,4.212c3.47,0.445,6.533,0.691,9.313-2.054c1.026-1.014,1.688-1.712,1.688-3.229  C463.808,323.494,463.812,225.57,463.807,127.646z"></path><path fill-rule="evenodd" clip-rule="evenodd" d="M63.625,385.811c35.876-1.37,71.292,2.078,106.261,10.169  c24.864,5.752,49,13.729,72.458,23.778c4.9,2.1,9.884,2.288,14.806,0.188c18.642-7.952,37.706-14.677,57.264-20.006  c31.585-8.604,63.724-13.479,96.455-14.259c8.947-0.213,17.904-0.032,27.042-0.032c0-97.714,0-195.379,0-293.258  c-5.453,0-10.768,0-16.373,0c0,90.675,0,181.273,0,271.935c-0.899,0.086-1.521,0.165-2.146,0.203  c-18.482,1.134-36.75,3.761-54.804,7.873c-38.239,8.71-74.232,23.164-108.357,42.395c-4.145,2.336-8.323,2.359-12.473,0.019  c-17.719-9.99-36.031-18.729-55.01-26.06c-34.642-13.382-70.391-21.836-107.513-24.188c-3.297-0.21-2.933,0.186-2.934-3.075  c-0.005-88.747-0.004-177.494-0.004-266.241c0-0.96,0-1.92,0-2.805c-5.613,0-10.921,0-16.28,0c0,97.93,0,195.591,0,293.366  C62.658,385.813,63.142,385.829,63.625,385.811z"></path></svg>